<svg xmlns="http://www.w3.org/2000/svg" viewBox="0 0 280 280"><circle cx="140" cy="140" r="125" fill="#F4EFE6" stroke="#B5834F" stroke-width="8"/><g transform="translate(78 78) scale(5.167)" fill="none" stroke="#6E4E2E" stroke-width="1.9" stroke-linecap="round" stroke-linejoin="round"><path d="M12 7v14" /><path d="M20 11v8a2 2 0 0 1-2 2H6a2 2 0 0 1-2-2v-8" /><path d="M7.5 7a1 1 0 0 1 0-5A4.8 8 0 0 1 12 7a4.8 8 0 0 1 4.5-5 1 1 0 0 1 0 5" /><rect x="3" y="7" width="18" height="4" rx="1" /></g></svg>
