<svg xmlns="http://www.w3.org/2000/svg" viewBox="0 0 280 280"><circle cx="140" cy="140" r="125" fill="#F4EFE6" stroke="#B5834F" stroke-width="8"/><g transform="translate(78 78) scale(5.167)" fill="none" stroke="#6E4E2E" stroke-width="1.9" stroke-linecap="round" stroke-linejoin="round"><path d="M11.017 2.814a1 1 0 0 1 1.966 0l1.051 5.558a2 2 0 0 0 1.594 1.594l5.558 1.051a1 1 0 0 1 0 1.966l-5.558 1.051a2 2 0 0 0-1.594 1.594l-1.051 5.558a1 1 0 0 1-1.966 0l-1.051-5.558a2 2 0 0 0-1.594-1.594l-5.558-1.051a1 1 0 0 1 0-1.966l5.558-1.051a2 2 0 0 0 1.594-1.594z" /><path d="M20 2v4" /><path d="M22 4h-4" /><circle cx="4" cy="20" r="2" /></g></svg>
