<svg xmlns="http://www.w3.org/2000/svg" xmlns:xlink="http://www.w3.org/1999/xlink" viewBox="0 0 252 296" width="252" height="296"><defs>
<radialGradient id="g-pink" cx="35%" cy="30%" r="75%"><stop offset="0" stop-color="#fff" stop-opacity=".95"/><stop offset=".35" stop-color="#d63a82"/><stop offset="1" stop-color="#d63a82" stop-opacity=".85"/></radialGradient><radialGradient id="g-teal" cx="35%" cy="30%" r="75%"><stop offset="0" stop-color="#fff" stop-opacity=".95"/><stop offset=".35" stop-color="#2aa596"/><stop offset="1" stop-color="#2aa596" stop-opacity=".85"/></radialGradient><radialGradient id="g-yellow" cx="35%" cy="30%" r="75%"><stop offset="0" stop-color="#fff" stop-opacity=".95"/><stop offset=".35" stop-color="#eec643"/><stop offset="1" stop-color="#eec643" stop-opacity=".85"/></radialGradient><radialGradient id="g-orange" cx="35%" cy="30%" r="75%"><stop offset="0" stop-color="#fff" stop-opacity=".95"/><stop offset=".35" stop-color="#ef8f17"/><stop offset="1" stop-color="#ef8f17" stop-opacity=".85"/></radialGradient><radialGradient id="g-purple" cx="35%" cy="30%" r="75%"><stop offset="0" stop-color="#fff" stop-opacity=".95"/><stop offset=".35" stop-color="#7d4fc0"/><stop offset="1" stop-color="#7d4fc0" stop-opacity=".85"/></radialGradient>
<radialGradient id="hueso" cx="50%" cy="34%" r="70%"><stop offset="0" stop-color="#fffdf6"/><stop offset=".6" stop-color="#f3ead6"/><stop offset="1" stop-color="#cdbf9f"/></radialGradient>
<radialGradient id="cuenca" cx="50%" cy="40%" r="65%"><stop offset="0" stop-color="#05020a"/><stop offset=".75" stop-color="#1c0f26"/><stop offset="1" stop-color="#3a2a44"/></radialGradient>
<linearGradient id="diente" x1="0" y1="0" x2="0" y2="1"><stop offset="0" stop-color="#fffef8"/><stop offset="1" stop-color="#ddd2b8"/></linearGradient>
<filter id="azucar" x="-5%" y="-5%" width="110%" height="110%"><feTurbulence type="fractalNoise" baseFrequency="1.4" numOctaves="2" seed="4" result="n"/><feColorMatrix in="n" type="matrix" values="0 0 0 0 1  0 0 0 0 1  0 0 0 0 1  0 0 0 .55 -.18" result="g"/><feComposite in="g" in2="SourceAlpha" operator="in" result="gi"/><feMerge><feMergeNode in="SourceGraphic"/><feMergeNode in="gi"/></feMerge></filter>
<filter id="suave"><feGaussianBlur stdDeviation="5"/></filter>
<filter id="sombra" x="-20%" y="-10%" width="140%" height="130%"><feDropShadow dx="0" dy="6" stdDeviation="6" flood-color="#000" flood-opacity=".45"/></filter>
</defs>
<g filter="url(#sombra)">
<!-- bóveda + pómulos + maxilar -->
<path filter="url(#azucar)" d="M126 10 C62 10 22 56 22 116 C22 146 30 168 44 184 C40 196 44 208 56 212 C62 214 66 220 68 228 L70 250 C72 270 96 282 126 282 C156 282 180 270 182 250 L184 228 C186 220 190 214 196 212 C208 208 212 196 208 184 C222 168 230 146 230 116 C230 56 190 10 126 10Z" fill="url(#hueso)" stroke="#a89878" stroke-width="2"/>
<!-- volumen: sienes, bajo pómulos y mentón -->
<g filter="url(#suave)" opacity=".5">
<ellipse cx="40" cy="128" rx="14" ry="40" fill="#8a7a5c"/><ellipse cx="212" cy="128" rx="14" ry="40" fill="#8a7a5c"/>
<ellipse cx="66" cy="204" rx="16" ry="10" fill="#7d6e52"/><ellipse cx="186" cy="204" rx="16" ry="10" fill="#7d6e52"/>
<ellipse cx="126" cy="276" rx="40" ry="8" fill="#8a7a5c"/>
</g>
<ellipse cx="104" cy="52" rx="46" ry="22" fill="#fff" opacity=".5" filter="url(#suave)"/>
<!-- cuencas: forma orbital real, no círculos -->
<path d="M50 128 C50 104 66 92 88 94 C108 96 116 110 114 130 C112 150 98 160 80 158 C62 156 50 146 50 128Z" fill="url(#cuenca)"/>
<path d="M202 128 C202 104 186 92 164 94 C144 96 136 110 138 130 C140 150 154 160 172 158 C190 156 202 146 202 128Z" fill="url(#cuenca)"/>
<!-- cavidad nasal con tabique -->
<path d="M126 154 C118 166 108 182 110 192 C112 200 122 200 126 192 C130 200 140 200 142 192 C144 182 134 166 126 154Z" fill="url(#cuenca)"/>
<path d="M126 162 V194" stroke="#4a3a54" stroke-width="1.5" opacity=".7"/>
<!-- dentadura -->
<path d="M76 214 Q126 226 176 214 L174 256 Q126 268 78 256Z" fill="#1c0f26"/>
<rect x="80.0" y="212.6" width="9" height="15" rx="4" fill="url(#diente)" stroke="#9c8f7a" stroke-width="1"/><rect x="91.0" y="213.2" width="10" height="18" rx="4" fill="url(#diente)" stroke="#9c8f7a" stroke-width="1"/><rect x="102.5" y="213.6" width="11" height="20" rx="4" fill="url(#diente)" stroke="#9c8f7a" stroke-width="1"/><rect x="114.5" y="214.0" width="12" height="22" rx="4" fill="url(#diente)" stroke="#9c8f7a" stroke-width="1"/><rect x="126.5" y="214.0" width="12" height="22" rx="4" fill="url(#diente)" stroke="#9c8f7a" stroke-width="1"/><rect x="138.5" y="213.6" width="11" height="20" rx="4" fill="url(#diente)" stroke="#9c8f7a" stroke-width="1"/><rect x="149.5" y="213.2" width="10" height="18" rx="4" fill="url(#diente)" stroke="#9c8f7a" stroke-width="1"/><rect x="159.5" y="212.6" width="9" height="15" rx="4" fill="url(#diente)" stroke="#9c8f7a" stroke-width="1"/><rect x="86.0" y="241.0" width="9" height="14" rx="4" fill="url(#diente)" stroke="#9c8f7a" stroke-width="1"/><rect x="96.5" y="240.2" width="10" height="16" rx="4" fill="url(#diente)" stroke="#9c8f7a" stroke-width="1"/><rect x="108.0" y="239.4" width="10.5" height="18" rx="4" fill="url(#diente)" stroke="#9c8f7a" stroke-width="1"/><rect x="120.0" y="239.0" width="11" height="19" rx="4" fill="url(#diente)" stroke="#9c8f7a" stroke-width="1"/><rect x="132.5" y="239.4" width="10.5" height="18" rx="4" fill="url(#diente)" stroke="#9c8f7a" stroke-width="1"/><rect x="144.0" y="240.2" width="10" height="16" rx="4" fill="url(#diente)" stroke="#9c8f7a" stroke-width="1"/><rect x="155.0" y="241.0" width="9" height="14" rx="4" fill="url(#diente)" stroke="#9c8f7a" stroke-width="1"/>
</g>
<!-- glasé: perlitas alrededor de las cuencas -->
<circle cx="118.1" cy="140.7" r="4" fill="url(#g-pink)"/><circle cx="112.5" cy="150.3" r="4" fill="url(#g-pink)"/><circle cx="104.5" cy="157.9" r="4" fill="url(#g-pink)"/><circle cx="94.6" cy="162.9" r="4" fill="url(#g-pink)"/><circle cx="83.7" cy="165.0" r="4" fill="url(#g-pink)"/><circle cx="72.6" cy="163.9" r="4" fill="url(#g-pink)"/><circle cx="62.3" cy="159.7" r="4" fill="url(#g-pink)"/><circle cx="53.6" cy="152.8" r="4" fill="url(#g-pink)"/><circle cx="47.3" cy="143.7" r="4" fill="url(#g-pink)"/><circle cx="43.7" cy="133.2" r="4" fill="url(#g-pink)"/><circle cx="43.2" cy="122.1" r="4" fill="url(#g-pink)"/><circle cx="45.9" cy="111.3" r="4" fill="url(#g-pink)"/><circle cx="51.5" cy="101.7" r="4" fill="url(#g-pink)"/><circle cx="59.5" cy="94.1" r="4" fill="url(#g-pink)"/><circle cx="69.4" cy="89.1" r="4" fill="url(#g-pink)"/><circle cx="80.3" cy="87.0" r="4" fill="url(#g-pink)"/><circle cx="91.4" cy="88.1" r="4" fill="url(#g-pink)"/><circle cx="101.7" cy="92.3" r="4" fill="url(#g-pink)"/><circle cx="110.4" cy="99.2" r="4" fill="url(#g-pink)"/><circle cx="116.7" cy="108.3" r="4" fill="url(#g-pink)"/>
<circle cx="208.8" cy="129.9" r="4" fill="url(#g-teal)"/><circle cx="206.1" cy="140.7" r="4" fill="url(#g-teal)"/><circle cx="200.5" cy="150.3" r="4" fill="url(#g-teal)"/><circle cx="192.5" cy="157.9" r="4" fill="url(#g-teal)"/><circle cx="182.6" cy="162.9" r="4" fill="url(#g-teal)"/><circle cx="171.7" cy="165.0" r="4" fill="url(#g-teal)"/><circle cx="160.6" cy="163.9" r="4" fill="url(#g-teal)"/><circle cx="150.3" cy="159.7" r="4" fill="url(#g-teal)"/><circle cx="141.6" cy="152.8" r="4" fill="url(#g-teal)"/><circle cx="135.3" cy="143.7" r="4" fill="url(#g-teal)"/><circle cx="133.9" cy="111.3" r="4" fill="url(#g-teal)"/><circle cx="139.5" cy="101.7" r="4" fill="url(#g-teal)"/><circle cx="147.5" cy="94.1" r="4" fill="url(#g-teal)"/><circle cx="157.4" cy="89.1" r="4" fill="url(#g-teal)"/><circle cx="168.3" cy="87.0" r="4" fill="url(#g-teal)"/><circle cx="179.4" cy="88.1" r="4" fill="url(#g-teal)"/><circle cx="189.7" cy="92.3" r="4" fill="url(#g-teal)"/><circle cx="198.4" cy="99.2" r="4" fill="url(#g-teal)"/><circle cx="204.7" cy="108.3" r="4" fill="url(#g-teal)"/><circle cx="208.3" cy="118.8" r="4" fill="url(#g-teal)"/>
<circle cx="99.1" cy="169.8" r="2.4" fill="url(#g-yellow)"/><circle cx="78.5" cy="172.9" r="2.4" fill="url(#g-yellow)"/><circle cx="58.5" cy="166.7" r="2.4" fill="url(#g-yellow)"/><circle cx="43.1" cy="152.4" r="2.4" fill="url(#g-yellow)"/><circle cx="35.5" cy="133.0" r="2.4" fill="url(#g-yellow)"/><circle cx="37.1" cy="112.1" r="2.4" fill="url(#g-yellow)"/><circle cx="47.6" cy="94.0" r="2.4" fill="url(#g-yellow)"/><circle cx="64.9" cy="82.2" r="2.4" fill="url(#g-yellow)"/><circle cx="85.5" cy="79.1" r="2.4" fill="url(#g-yellow)"/><circle cx="105.5" cy="85.3" r="2.4" fill="url(#g-yellow)"/>
<circle cx="214.9" cy="139.9" r="2.4" fill="url(#g-yellow)"/><circle cx="204.4" cy="158.0" r="2.4" fill="url(#g-yellow)"/><circle cx="187.1" cy="169.8" r="2.4" fill="url(#g-yellow)"/><circle cx="166.5" cy="172.9" r="2.4" fill="url(#g-yellow)"/><circle cx="146.5" cy="166.7" r="2.4" fill="url(#g-yellow)"/><circle cx="152.9" cy="82.2" r="2.4" fill="url(#g-yellow)"/><circle cx="173.5" cy="79.1" r="2.4" fill="url(#g-yellow)"/><circle cx="193.5" cy="85.3" r="2.4" fill="url(#g-yellow)"/><circle cx="208.9" cy="99.6" r="2.4" fill="url(#g-yellow)"/><circle cx="216.5" cy="119.0" r="2.4" fill="url(#g-yellow)"/>
<!-- frente: cempasúchil pequeño y roleos de cordón fino -->
<g transform="translate(126 52)">
<ellipse transform="rotate(0)" cx="0" cy="-13" rx="4.6" ry="9" fill="url(#g-orange)"/><ellipse transform="rotate(25.7)" cx="0" cy="-13" rx="4.6" ry="9" fill="url(#g-orange)"/><ellipse transform="rotate(51.4)" cx="0" cy="-13" rx="4.6" ry="9" fill="url(#g-orange)"/><ellipse transform="rotate(77.1)" cx="0" cy="-13" rx="4.6" ry="9" fill="url(#g-orange)"/><ellipse transform="rotate(102.8)" cx="0" cy="-13" rx="4.6" ry="9" fill="url(#g-orange)"/><ellipse transform="rotate(128.5)" cx="0" cy="-13" rx="4.6" ry="9" fill="url(#g-orange)"/><ellipse transform="rotate(154.2)" cx="0" cy="-13" rx="4.6" ry="9" fill="url(#g-orange)"/><ellipse transform="rotate(179.9)" cx="0" cy="-13" rx="4.6" ry="9" fill="url(#g-orange)"/><ellipse transform="rotate(205.6)" cx="0" cy="-13" rx="4.6" ry="9" fill="url(#g-orange)"/><ellipse transform="rotate(231.29999999999998)" cx="0" cy="-13" rx="4.6" ry="9" fill="url(#g-orange)"/><ellipse transform="rotate(257)" cx="0" cy="-13" rx="4.6" ry="9" fill="url(#g-orange)"/><ellipse transform="rotate(282.7)" cx="0" cy="-13" rx="4.6" ry="9" fill="url(#g-orange)"/><ellipse transform="rotate(308.4)" cx="0" cy="-13" rx="4.6" ry="9" fill="url(#g-orange)"/><ellipse transform="rotate(334.09999999999997)" cx="0" cy="-13" rx="4.6" ry="9" fill="url(#g-orange)"/>
<ellipse transform="rotate(12)" cx="0" cy="-7" rx="3.6" ry="6" fill="url(#g-yellow)"/><ellipse transform="rotate(52)" cx="0" cy="-7" rx="3.6" ry="6" fill="url(#g-yellow)"/><ellipse transform="rotate(92)" cx="0" cy="-7" rx="3.6" ry="6" fill="url(#g-yellow)"/><ellipse transform="rotate(132)" cx="0" cy="-7" rx="3.6" ry="6" fill="url(#g-yellow)"/><ellipse transform="rotate(172)" cx="0" cy="-7" rx="3.6" ry="6" fill="url(#g-yellow)"/><ellipse transform="rotate(212)" cx="0" cy="-7" rx="3.6" ry="6" fill="url(#g-yellow)"/><ellipse transform="rotate(252)" cx="0" cy="-7" rx="3.6" ry="6" fill="url(#g-yellow)"/><ellipse transform="rotate(292)" cx="0" cy="-7" rx="3.6" ry="6" fill="url(#g-yellow)"/><ellipse transform="rotate(332)" cx="0" cy="-7" rx="3.6" ry="6" fill="url(#g-yellow)"/>
<circle r="4" fill="url(#g-orange)"/>
</g>
<g fill="none" stroke-linecap="round" stroke-width="2.6">
<path d="M100 56 C86 44 66 48 62 64 C60 74 70 80 76 72" stroke="#7d4fc0"/>
<path d="M152 56 C166 44 186 48 190 64 C192 74 182 80 176 72" stroke="#7d4fc0"/>
<path d="M104 74 C96 84 84 84 78 78" stroke="#2aa596"/><path d="M148 74 C156 84 168 84 174 78" stroke="#2aa596"/>
<path d="M112 86 Q126 78 140 86" stroke="#d63a82"/>
<path d="M46 176 C52 170 60 172 60 180" stroke="#d63a82"/><path d="M206 176 C200 170 192 172 192 180" stroke="#d63a82"/>
<path d="M100 270 Q126 279 152 270" stroke="#2aa596"/>
</g>
<circle cx="102.0" cy="97.1" r="2.6" fill="url(#g-pink)"/><circle cx="114.0" cy="98.6" r="2.6" fill="url(#g-yellow)"/><circle cx="126.0" cy="100.0" r="2.6" fill="url(#g-teal)"/><circle cx="138.0" cy="98.6" r="2.6" fill="url(#g-yellow)"/><circle cx="150.0" cy="97.1" r="2.6" fill="url(#g-pink)"/>
<circle cx="52.0" cy="192.0" r="3.4" fill="url(#g-orange)"/><circle cx="200.0" cy="192.0" r="3.4" fill="url(#g-orange)"/><circle cx="92.0" cy="204.0" r="3.4" fill="url(#g-purple)"/><circle cx="160.0" cy="204.0" r="3.4" fill="url(#g-purple)"/><circle cx="126.0" cy="146.0" r="3.4" fill="url(#g-pink)"/></svg>
